<svg xmlns="http://www.w3.org/2000/svg" version="1.1" xmlns:xlink="http://www.w3.org/1999/xlink" xmlns:svgjs="http://svgjs.dev/svgjs" viewBox="0 0 600 600" width="4em" height="4em"><path d="M20.656896376743248 724.2334354210534C-43.479227280483315 737.7151121585208 -350.6781561134911 712.4533400027591 -404.2121832131005 689.6784732628503C-457.7462103127099 666.9036065229413 -340.86140399760575 610.4899941572187 -300.547266220913 587.5842349816003C-260.2331284442203 564.6784758059817 -209.18599404480625 548.7098885663984 -162.32735655294425 552.2439182091393C-115.46871906108225 555.7779478518802 -49.89281675802238 580.1234933027265 -19.395441269741127 608.7884128380456C11.101934218540123 637.4533323733646 84.79302003396981 710.7517586835859 20.656896376743248 724.2334354210534C-43.479227280483315 737.7151121585208 -350.6781561134911 712.4533400027591 -404.2121832131005 689.6784732628503 " fill="url(&quot;#SvgjsLinearGradient1005&quot;)" transform="matrix(0.5218403274598342,0.5962635526592037,0.39509874937180517,0.8171213946785337,62.09055665401138,-114.66329288935486)"></path><path d="M289.9427035599181 457.23994779380655C225.8065799026915 470.721624531274 -81.3923489303163 445.4598523755123 -134.92637602992568 422.6849856356034C-188.46040312953505 399.91011889569455 -71.5755968144309 343.49650652997195 -31.261459037738177 320.5907473543534C9.052678738954512 297.6849881787349 60.099813138368575 281.71640093915164 106.95845063023057 285.2504305818925C153.81708812209257 288.78446022463334 219.39299042515245 313.13000567547977 249.8903659134337 341.79492521079874C280.38774140171495 370.45984474611777 354.07882721714464 443.7582710563391 289.9427035599181 457.23994779380655C225.8065799026915 470.721624531274 -81.3923489303163 445.4598523755123 -134.92637602992568 422.6849856356034 " fill-opacity="1" fill="url(&quot;#SvgjsLinearGradient1004&quot;)" opacity="1" stroke-opacity="1" stroke-width="0" stroke="hsl(340, 45%, 30%)" transform="matrix(0.7321150313536346,0.5962635526592037,0.6832598461637167,0.8171213946785337,-8.783833639509737,-61.381892908740895)"></path><defs><linearGradient id="SvgjsLinearGradient1004"><stop stop-color="hsl(340, 45%, 50%)" offset="0"></stop><stop stop-color="hsl(340, 73%, 64%)" offset="1"></stop></linearGradient><linearGradient id="SvgjsLinearGradient1005" gradientTransform="rotate(164, 0.5, 0.5)"><stop stop-color="hsl(340, 45%, 50%)" offset="0"></stop><stop stop-color="hsl(340, 73%, 64%)" offset="1"></stop></linearGradient></defs></svg>